<svg width="500" height="500" viewBox="0 0 500 500" fill="none" xmlns="http://www.w3.org/2000/svg">
<mask id="mask0_11_2" style="mask-type:alpha" maskUnits="userSpaceOnUse" x="0" y="250" width="500" height="250">
<rect y="250" width="500" height="250" fill="#D9D9D9"/>
</mask>
<g mask="url(#mask0_11_2)">
<circle cy="250" r="250" fill="url(#paint0_linear_11_2)"/>
<circle cx="500" cy="250" r="250" fill="url(#paint1_linear_11_2)"/>
</g>
<mask id="mask1_11_2" style="mask-type:alpha" maskUnits="userSpaceOnUse" x="0" y="0" width="500" height="250">
<rect width="500" height="250" fill="#D9D9D9"/>
</mask>
<g mask="url(#mask1_11_2)">
<circle cx="250" cy="250" r="250" fill="url(#paint2_linear_11_2)"/>
</g>
<circle cx="250" cy="220" r="75" fill="url(#paint3_linear_11_2)"/>
<path d="M276.421 218.888C276.807 218.974 277 219.189 277 219.532C277 219.661 276.957 219.768 276.871 219.854C276.829 219.94 276.764 220.026 276.678 220.112C275.82 220.413 274.919 220.713 273.975 221.014C273.031 221.271 272.066 221.508 271.079 221.722C268.719 222.323 266.509 223.247 264.449 224.492C262.433 225.737 260.609 227.219 258.979 228.937C257.391 230.654 256.061 232.587 254.988 234.734C253.915 236.881 253.164 239.178 252.735 241.626C252.392 243.258 252.027 244.761 251.641 246.135C251.298 247.509 250.933 248.69 250.547 249.678C250.418 249.893 250.225 250 249.968 250C249.753 250 249.582 249.893 249.453 249.678C249.067 248.69 248.681 247.509 248.294 246.135C247.951 244.761 247.608 243.258 247.265 241.626C246.836 239.178 246.085 236.881 245.012 234.734C243.939 232.587 242.588 230.654 240.957 228.937C239.37 227.219 237.546 225.737 235.486 224.492C233.47 223.247 231.281 222.323 228.921 221.722C227.934 221.508 226.969 221.271 226.025 221.014C225.081 220.713 224.18 220.413 223.322 220.112C223.236 220.026 223.15 219.962 223.064 219.919C223.021 219.833 223 219.725 223 219.597C223 219.21 223.193 218.974 223.579 218.888C223.88 218.845 224.244 218.759 224.673 218.63C225.017 218.545 225.446 218.459 225.961 218.373C226.476 218.244 227.033 218.094 227.634 217.922C230.166 217.407 232.504 216.548 234.65 215.345C236.838 214.1 238.79 212.618 240.507 210.901C242.223 209.14 243.639 207.165 244.754 204.975C245.913 202.785 246.728 200.444 247.2 197.954C247.501 196.107 247.844 194.475 248.23 193.058C248.659 191.598 249.067 190.31 249.453 189.193C249.582 189.064 249.753 189 249.968 189C250.225 189 250.418 189.064 250.547 189.193C250.933 190.31 251.319 191.598 251.706 193.058C252.135 194.475 252.499 196.107 252.8 197.954C253.272 200.444 254.066 202.785 255.181 204.975C256.34 207.165 257.756 209.14 259.429 210.901C261.145 212.618 263.076 214.1 265.222 215.345C267.367 216.548 269.684 217.407 272.173 217.922C272.816 218.094 273.396 218.244 273.911 218.373C274.468 218.459 274.919 218.545 275.262 218.63C275.691 218.759 276.077 218.845 276.421 218.888Z" fill="url(#paint4_linear_11_2)"/>
<circle cx="109" cy="63" r="50" fill="url(#paint5_linear_11_2)"/>
<path d="M180.126 29.197C181.922 33.0354 181.723 37.6404 179.733 42.7327C177.742 47.8265 173.974 53.3633 168.711 59.0064C158.187 70.2904 141.759 81.9222 121.917 91.2045C102.075 100.487 82.6182 105.642 67.2115 106.489C59.5067 106.912 52.8414 106.257 47.6553 104.52C42.4707 102.785 38.8082 99.9861 37.0125 96.1476C35.2169 92.3092 35.4159 87.7042 37.4062 82.6119C39.3971 77.5181 43.1655 71.9813 48.4284 66.3382C58.9523 55.0541 75.3799 43.4223 95.2217 34.1401C115.064 24.8578 134.521 19.7021 149.928 18.8555C157.632 18.4321 164.298 19.0879 169.484 20.8242C174.668 22.56 178.331 25.3585 180.126 29.197Z" stroke="url(#paint6_linear_11_2)"/>
<defs>
<linearGradient id="paint0_linear_11_2" x1="0" y1="0" x2="0" y2="500" gradientUnits="userSpaceOnUse">
<stop stop-color="#01020F"/>
<stop offset="0.58" stop-color="#01020F" stop-opacity="0.5"/>
<stop offset="0.87" stop-color="#01020F" stop-opacity="0.25"/>
</linearGradient>
<linearGradient id="paint1_linear_11_2" x1="500" y1="0" x2="500" y2="500" gradientUnits="userSpaceOnUse">
<stop stop-color="#01020F"/>
<stop offset="0.58" stop-color="#01020F" stop-opacity="0.5"/>
<stop offset="0.87" stop-color="#01020F" stop-opacity="0.25"/>
</linearGradient>
<linearGradient id="paint2_linear_11_2" x1="250" y1="0" x2="250" y2="500" gradientUnits="userSpaceOnUse">
<stop stop-color="#01020F"/>
<stop offset="0.58" stop-color="#01020F" stop-opacity="0.5"/>
<stop offset="0.87" stop-color="#01020F" stop-opacity="0.25"/>
</linearGradient>
<linearGradient id="paint3_linear_11_2" x1="250" y1="211.75" x2="425.5" y2="385.75" gradientUnits="userSpaceOnUse">
<stop offset="0.03" stop-color="white" stop-opacity="0"/>
<stop offset="1" stop-color="#8894FF" stop-opacity="0.5"/>
</linearGradient>
<linearGradient id="paint4_linear_11_2" x1="250" y1="189" x2="250" y2="250" gradientUnits="userSpaceOnUse">
<stop stop-color="#FF0000"/>
<stop offset="1" stop-color="#740000"/>
</linearGradient>
<linearGradient id="paint5_linear_11_2" x1="109" y1="13" x2="109" y2="113" gradientUnits="userSpaceOnUse">
<stop stop-color="#00A368"/>
<stop offset="1" stop-color="#1D9BF0"/>
</linearGradient>
<linearGradient id="paint6_linear_11_2" x1="95.0099" y1="33.6872" x2="118.5" y2="90" gradientUnits="userSpaceOnUse">
<stop offset="0.045" stop-color="#1D9BF0" stop-opacity="0"/>
<stop offset="0.455" stop-color="white"/>
</linearGradient>
</defs>
</svg>
